<?xml version="1.0" encoding="utf-8"?>
<!-- Generator: Adobe Illustrator 21.1.0, SVG Export Plug-In . SVG Version: 6.00 Build 0)  -->
<svg version="1.1" id="Layer_1" xmlns="http://www.w3.org/2000/svg" xmlns:xlink="http://www.w3.org/1999/xlink" x="0px" y="0px"
	 viewBox="0 0 954.1 695.3" style="enable-background:new 0 0 954.1 695.3;" xml:space="preserve">
<style type="text/css">
	.st0{fill:#FAAF3C;}
</style>
<g>
	<path class="st0" d="M755.7,327.2c-3.3-2.5-2.5-7.5,1.4-9c38.8-14.5,79.2-28.5,121.1-24.1c8,0.8,16,2.6,22.9,6.7
		c12.5,7.7,17.9,23.9,11.2,37.2c-5.4,10.8-16.2,17.9-27.3,22.7c-22.4,9.7-49.1,12.3-72.7,5.7c-9.7-2.7-17.8-7.5-25.3-13.1
		C776.1,345.4,766.6,335.5,755.7,327.2 M53,338.1c43.4,46.2,122.7,12,173.6,0.5c5.5-1.3,12.4-2.1,16,2.3c2.6,3.2,2.3,7.9,1.4,12
		c-9.5,43.1-98.5,88.9-64.5,138.9c9.7,14.3,25.7,13.5,37.2,1.6c13.5-14,44.2-52.7,63.8-22c19,29.7-35,30.5-26.4,57.7
		c2,6.5,6.4,11.9,9.5,18c17,32.7-16.3,67,0.3,98.1c16.1,30.2,56.1,18.2,74.3-1.9c11.2-12.3,16.4-29.5,28.6-40.6
		c7.3-6.7,19.1-10,27.1-4.2c8.7,6.2,10.3,20.4,20.3,24c10,3.6,19.7-6.3,24.2-16c4.5-9.6,8.1-21.2,17.8-25.6
		c10-4.5,22.2,1.5,28.1,10.7c5.9,9.2,6.8,20.7,6.7,31.6c-0.1,14-0.5,30.3,10.5,38.9c22.6,17.7,44.7-14.9,48-33.9
		c4.2-24,1.2-73.5,36.9-75.2c23.2-1.1,36.4,27.2,58.1,35.4c23.5,8.9,52.3-14.3,48.6-39.1c-5.3-35.7-70.7-70.2-28.1-107.3
		c10.7-9.3,24.7-12.6,35.4-21.8c11.6-10,19.9-25.1,17.5-40.3c-3.8-24.4-32.1-38.2-39-61.9c-7.3-24.9,11.5-49.6,31.1-66.6
		c36.6-31.6,81-54.6,111.3-92.2c14.2-17.6,24.7-43.2,12-61.9C824.9,84.4,807.2,79.8,792,83s-28.3,12.9-39.4,23.8
		c-16.3,16-29.5,35.2-38.6,56.1c-3.8,8.7-7,17.9-13.3,24.9c-6.3,7.1-16.8,11.4-25.4,7.5c-3.6-1.7-6.6-4.7-10.2-6.3
		c-9.9-4.3-21.2,2.8-28.2,11c-7,8.2-12.6,18.4-22.3,23.2c-17.7,8.7-39.9-6.5-44.7-25.7c-4.8-19.1,3.2-39.1,13.5-55.9
		c10.3-16.8,23.3-32.2,30.2-50.6c6.9-18.4,6.3-41.7-8.1-55.1c-21.4-20-59.4-4.6-72.6,21.5c-11.6,22.9-10.1,49.9-14.3,75.2
		c-2,11.9-5.6,24.1-13.8,33c-8.2,8.9-22,13.5-32.9,8.1c-14.1-7.1-16.4-25.7-19.2-41.2s-12.9-33.9-28.5-31.8
		c-6.4,0.9-12.2,5.3-18.6,5.3c-10.1,0-17-10.7-18.9-20.6c-1.9-9.9-0.9-20.5-4.9-29.8c-8.3-19.3-36.2-24.1-53.7-12.6
		c-23.7,15.5-27.5,47.2-22.2,72.8c4,19.1,11.9,37.3,15.9,56.5c1.7,8,2.7,16.6,0,24.4c-5.9,16.7-23.8,14.5-38.1,15.3
		c-10,0.5-21.9,5.5-22.8,15.5c2.7,10.4,15.5,14,22.9,21.9c6.8,7.3,8.3,18.9,3.8,27.7c-6.9,13.2-23.6,15.8-35.6,7.7
		c-9.7-6.5-15.3-17.6-19.6-28.5c-7-17.9-13.5-40.6-35.6-43.6c-19.3-2.6-38.6,12.2-52,24.1c-21,18.6-40.9,23.3-66.9,30.9
		c-14.8,4.3-30.1,12.5-35.8,26.8C36.1,309.2,42.2,326.6,53,338.1"/>
</g>
</svg>
