<?xml version="1.0" encoding="UTF-8" standalone="no"?>
<!-- Generator: Adobe Illustrator 21.1.0, SVG Export Plug-In . SVG Version: 6.00 Build 0)  -->

<svg
   xmlns:dc="http://purl.org/dc/elements/1.1/"
   xmlns:cc="http://creativecommons.org/ns#"
   xmlns:rdf="http://www.w3.org/1999/02/22-rdf-syntax-ns#"
   xmlns:svg="http://www.w3.org/2000/svg"
   xmlns="http://www.w3.org/2000/svg"
   xmlns:xlink="http://www.w3.org/1999/xlink"
   xmlns:sodipodi="http://sodipodi.sourceforge.net/DTD/sodipodi-0.dtd"
   xmlns:inkscape="http://www.inkscape.org/namespaces/inkscape"
   version="1.1"
   id="Layer_1"
   x="0px"
   y="0px"
   viewBox="0 0 430.46562 260.00001"
   xml:space="preserve"
   sodipodi:docname="HomeCinza.svg"
   width="430.46564"
   height="260"
   inkscape:version="0.92.1 unknown"><metadata
     id="metadata4985"><rdf:RDF><cc:Work
         rdf:about=""><dc:format>image/svg+xml</dc:format><dc:type
           rdf:resource="http://purl.org/dc/dcmitype/StillImage" /></cc:Work></rdf:RDF></metadata><defs
     id="defs4983" /><sodipodi:namedview
     pagecolor="#ffffff"
     bordercolor="#666666"
     borderopacity="1"
     objecttolerance="10"
     gridtolerance="10"
     guidetolerance="10"
     inkscape:pageopacity="0"
     inkscape:pageshadow="2"
     inkscape:window-width="1366"
     inkscape:window-height="703"
     id="namedview4981"
     showgrid="false"
     inkscape:zoom="0.39643878"
     inkscape:cx="214.41564"
     inkscape:cy="-35.649994"
     inkscape:window-x="0"
     inkscape:window-y="0"
     inkscape:window-maximized="1"
     inkscape:current-layer="Layer_1" /><style
     type="text/css"
     id="style4966">
	.st0{clip-path:url(#SVGID_2_);}
	.st1{fill:#F2F2F2;}
</style><g
     id="g4978"
     transform="translate(-206.53437,-166)"><defs
       id="defs4969"><rect
         id="SVGID_1_"
         x="203.60001"
         y="166"
         width="433.39999"
         height="260" /></defs><clipPath
       id="SVGID_2_"><use
         xlink:href="#SVGID_1_"
         style="overflow:visible"
         id="use4971"
         x="0"
         y="0"
         width="100%"
         height="100%" /></clipPath><g
       class="st0"
       clip-path="url(#SVGID_2_)"
       id="g4976"><path
         class="st1"
         d="m 327.5,196.6 c 14.2,-11 28.8,-22.3 45.9,-27.8 17.1,-5.5 37.6,-4.1 50.8,8.1 13.9,12.9 17.7,35.2 33.9,45 22.3,13.4 54.9,-4.9 75.8,10.6 11,8.2 14.6,23.2 24,33.2 11.7,12.5 30.1,15.3 46.3,20.7 16.2,5.4 33.6,17.5 33,34.6 -0.5,15.2 -15,26.3 -18.8,41.1 -4.3,16.8 5.8,35.8 -1.9,51.4 -4.1,8.3 -12.7,13.7 -21.6,16.1 -8.9,2.4 -18.3,2.3 -27.6,2.1 -98.4,-1.7 -196.9,-3.4 -295.3,-5.1 -17.1,-0.3 -35.7,-1.1 -49,-11.9 -13.6,-11.1 -18.2,-30.5 -15.9,-47.9 2.3,-17.4 10.5,-33.4 18.5,-49.1 10.3,-20.1 18,-46.4 31.5,-64.4 17.2,-22.5 48.2,-39.5 70.4,-56.7 z"
         id="path4974"
         inkscape:connector-curvature="0"
         style="fill:#f2f2f2" /></g></g></svg>