<?xml version="1.0" encoding="UTF-8" standalone="no"?>
<!-- Generator: Adobe Illustrator 21.1.0, SVG Export Plug-In . SVG Version: 6.00 Build 0)  -->

<svg
   xmlns:dc="http://purl.org/dc/elements/1.1/"
   xmlns:cc="http://creativecommons.org/ns#"
   xmlns:rdf="http://www.w3.org/1999/02/22-rdf-syntax-ns#"
   xmlns:svg="http://www.w3.org/2000/svg"
   xmlns="http://www.w3.org/2000/svg"
   xmlns:xlink="http://www.w3.org/1999/xlink"
   xmlns:sodipodi="http://sodipodi.sourceforge.net/DTD/sodipodi-0.dtd"
   xmlns:inkscape="http://www.inkscape.org/namespaces/inkscape"
   version="1.1"
   id="Layer_1"
   x="0px"
   y="0px"
   viewBox="0 0 841.99998 393.6363"
   xml:space="preserve"
   sodipodi:docname="HomeLaranja.svg"
   width="842"
   height="393.63629"
   inkscape:version="0.92.1 unknown"><metadata
     id="metadata4196"><rdf:RDF><cc:Work
         rdf:about=""><dc:format>image/svg+xml</dc:format><dc:type
           rdf:resource="http://purl.org/dc/dcmitype/StillImage" /></cc:Work></rdf:RDF></metadata><defs
     id="defs4194" /><sodipodi:namedview
     pagecolor="#ffffff"
     bordercolor="#666666"
     borderopacity="1"
     objecttolerance="10"
     gridtolerance="10"
     guidetolerance="10"
     inkscape:pageopacity="0"
     inkscape:pageshadow="2"
     inkscape:window-width="1366"
     inkscape:window-height="703"
     id="namedview4192"
     showgrid="false"
     inkscape:zoom="0.86511005"
     inkscape:cx="421.05001"
     inkscape:cy="148.66138"
     inkscape:window-x="0"
     inkscape:window-y="0"
     inkscape:window-maximized="1"
     inkscape:current-layer="Layer_1" /><style
     type="text/css"
     id="style4177">
	.st0{clip-path:url(#SVGID_2_);}
	.st1{fill:#FAAF3C;}
</style><g
     id="g4189"
     transform="translate(0.1,-100.96372)"><defs
       id="defs4180"><rect
         id="SVGID_1_"
         x="-0.1"
         y="100.6"
         width="842"
         height="394" /></defs><clipPath
       id="SVGID_2_"><use
         xlink:href="#SVGID_1_"
         style="overflow:visible"
         id="use4182"
         x="0"
         y="0"
         width="100%"
         height="100%" /></clipPath><g
       class="st0"
       clip-path="url(#SVGID_2_)"
       id="g4187"><path
         class="st1"
         d="m 966.7,736.9 c -48.1,-82.1 -175.6,-58.4 -254,-58.4 -8.5,0 -18.8,-1 -22.7,-8.6 -2.8,-5.6 -0.7,-12.3 1.9,-18 28.2,-59.9 173.7,-97.4 140.6,-182 -9.5,-24.1 -33.2,-28.4 -53.9,-14.7 -24.3,16 -82.2,62.5 -100.8,11 -18,-49.8 61.4,-33 57.8,-75.7 -0.9,-10.2 -5.3,-19.6 -7.9,-29.5 -14,-53.5 46.1,-92.6 32.2,-143.7 -13.5,-49.5 -76,-45.3 -109.5,-21.9 -20.4,14.3 -33.9,37.7 -55.4,50 -12.9,7.4 -31.2,8.3 -41.2,-2.8 -10.7,-11.9 -8.3,-33.3 -21.8,-41.9 -13.4,-8.6 -31,2.7 -40.8,15.3 -9.8,12.6 -18.9,28.3 -34.6,31.5 -16.1,3.3 -32,-9.5 -37.6,-24.9 -5.6,-15.4 -3.1,-32.5 0.6,-48.5 4.8,-20.4 10.8,-44.2 -2.5,-60.5 -27.3,-33.4 -70.4,7 -81.6,33.7 -14.2,33.7 -26.2,107.2 -79.1,97.8 -34.3,-6.1 -44.3,-52 -73.3,-71.2 -31.4,-20.8 -81.3,3.6 -84.2,41.1 -4.1,54 80.2,126.3 5.5,166.5 -18.8,10.1 -40.3,10.2 -59.1,20.1 -20.3,10.7 -37.5,30.2 -39.1,53.1 -2.6,37 34.3,66.6 36.5,103.6 2.4,38.9 -33.4,68.8 -67.7,87.2 -64,34.1 -136.8,53 -193.7,98 -26.6,21 -50.6,55.1 -38.2,86.6 8.5,21.8 32.8,34.4 56.2,34.7 23.4,0.4 45.7,-9.5 65.6,-21.8 29.2,-18 54.9,-41.7 75.2,-69.3 8.4,-11.5 16.2,-23.8 27.8,-32.1 11.6,-8.2 28.5,-11.2 39.7,-2.5 4.8,3.7 8.1,9 12.9,12.6 13.1,9.6 31.9,3 44.9,-6.7 13,-9.7 24.6,-22.7 40.4,-26.5 28.8,-6.9 56.3,22.9 56.9,52.4 0.6,29.6 -17.6,56.3 -38.3,77.4 -20.7,21.1 -44.8,39.4 -61.1,64.1 -16.3,24.7 -23.1,58.9 -6.5,83.4 24.7,36.4 85.4,26.5 113.4,-7.4 24.5,-29.7 31.4,-69.7 46,-105.4 6.9,-16.8 16.2,-33.5 31.2,-43.8 15,-10.3 36.8,-12.5 50.8,-0.9 18.3,15.1 15.4,43.1 14.4,66.7 -1,23.7 7.5,54 31.1,56.1 9.7,0.9 19.6,-3.7 29.1,-1.6 14.8,3.4 21.3,21.3 20.8,36.5 -0.5,15.2 -5.5,30.4 -2.7,45.3 5.7,31 45,47.3 74.5,36.3 39.9,-14.8 56,-60 56.7,-99.2 0.5,-29.4 -5,-58.6 -4.6,-88 0.2,-12.4 1.6,-25.2 8.2,-35.7 14.2,-22.5 39.7,-13.4 60.8,-9.7 14.8,2.6 33.8,-0.8 38.6,-15.1 -0.4,-16.2 -18.1,-25.7 -26.2,-39.7 -7.5,-12.9 -5.9,-30.5 3.7,-41.9 14.5,-17 39.8,-15.3 54.7,0.5 12.1,12.8 16.6,30.8 19.2,48.2 4.3,28.5 6.2,63.9 37.7,75.7 27.3,10.2 60.5,-5 84.2,-18 36.9,-20.2 67.6,-20.6 108.2,-23.1 23.2,-1.4 48.2,-8.3 61.3,-27.4 14.1,-19.3 10.9,-46.7 -1.2,-67.3"
         id="path4185"
         inkscape:connector-curvature="0"
         style="fill:#faaf3c" /></g></g></svg>