<?xml version="1.0" encoding="UTF-8" standalone="no"?>
<!-- Generator: Adobe Illustrator 21.1.0, SVG Export Plug-In . SVG Version: 6.00 Build 0)  -->

<svg
   xmlns:dc="http://purl.org/dc/elements/1.1/"
   xmlns:cc="http://creativecommons.org/ns#"
   xmlns:rdf="http://www.w3.org/1999/02/22-rdf-syntax-ns#"
   xmlns:svg="http://www.w3.org/2000/svg"
   xmlns="http://www.w3.org/2000/svg"
   xmlns:xlink="http://www.w3.org/1999/xlink"
   xmlns:sodipodi="http://sodipodi.sourceforge.net/DTD/sodipodi-0.dtd"
   xmlns:inkscape="http://www.inkscape.org/namespaces/inkscape"
   version="1.1"
   id="Layer_1"
   x="0px"
   y="0px"
   viewBox="0 0 360.00001 413.46601"
   xml:space="preserve"
   sodipodi:docname="mobile-header-laranja.svg"
   width="360"
   height="413.466"
   inkscape:version="0.92.1 unknown"><metadata
     id="metadata1189"><rdf:RDF><cc:Work
         rdf:about=""><dc:format>image/svg+xml</dc:format><dc:type
           rdf:resource="http://purl.org/dc/dcmitype/StillImage" /></cc:Work></rdf:RDF></metadata><defs
     id="defs1187" /><sodipodi:namedview
     pagecolor="#ffffff"
     bordercolor="#666666"
     borderopacity="1"
     objecttolerance="10"
     gridtolerance="10"
     guidetolerance="10"
     inkscape:pageopacity="0"
     inkscape:pageshadow="2"
     inkscape:window-width="640"
     inkscape:window-height="480"
     id="namedview1185"
     showgrid="false"
     inkscape:zoom="0.33942184"
     inkscape:cx="179.94998"
     inkscape:cy="197.35001"
     inkscape:window-x="0"
     inkscape:window-y="0"
     inkscape:window-maximized="0"
     inkscape:current-layer="Layer_1" /><style
     type="text/css"
     id="style1166">
	.st0{clip-path:url(#SVGID_2_);}
	.st1{fill:#FAAF3C;}
</style><g
     id="g1182"
     transform="translate(-297.10001,-131.534)"><defs
       id="defs1169"><rect
         id="SVGID_1_"
         x="297.10001"
         y="131"
         width="360"
         height="414" /></defs><clipPath
       id="SVGID_2_"><use
         xlink:href="#SVGID_1_"
         style="overflow:visible"
         id="use1171"
         x="0"
         y="0"
         width="100%"
         height="100%" /></clipPath><g
       class="st0"
       clip-path="url(#SVGID_2_)"
       id="g1180"><rect
         x="297.10001"
         y="219"
         class="st1"
         width="360"
         height="348"
         id="rect1174"
         style="fill:#faaf3c" /><g
         id="g1178"><path
           class="st1"
           d="m 788.8,457.6 c -28.5,-42.1 -104.1,-30 -150.5,-29.9 -5.1,0 -11.2,-0.5 -13.4,-4.4 -1.7,-2.9 -0.4,-6.3 1.2,-9.2 16.7,-30.7 102.9,-50 83.3,-93.4 -5.6,-12.4 -19.7,-14.5 -32,-7.6 -14.4,8.2 -48.7,32.1 -59.7,5.6 -10.6,-25.5 36.4,-16.9 34.3,-38.9 -0.5,-5.2 -3.2,-10 -4.7,-15.1 -8.3,-27.4 27.3,-47.5 19.1,-73.7 -8,-25.4 -45.1,-23.2 -64.9,-11.2 -12.1,7.3 -20.1,19.3 -32.8,25.7 -7.7,3.8 -18.5,4.2 -24.4,-1.4 -6.3,-6.1 -4.9,-17.1 -12.9,-21.5 -8,-4.4 -18.3,1.4 -24.2,7.9 -5.8,6.5 -11.2,14.5 -20.5,16.2 -9.5,1.7 -19,-4.9 -22.3,-12.8 -3.3,-7.9 -1.8,-16.7 0.4,-24.9 2.8,-10.5 6.4,-22.7 -1.5,-31 -16.2,-17.1 -41.7,3.6 -48.3,17.3 -8.4,17.3 -15.5,55 -46.9,50.2 -20.3,-3.1 -26.3,-26.7 -43.5,-36.5 -18.6,-10.7 -48.2,1.8 -49.9,21.1 -2.4,27.7 47.5,64.8 3.3,85.4 -11.1,5.2 -23.9,5.2 -35,10.3 -12,5.5 -22.2,15.5 -23.1,27.3 -1.5,19 20.3,34.2 21.6,53.1 1.4,20 -19.8,35.3 -40.1,44.7 -37.9,17.5 -81,27.2 -114.8,50.3 -15.8,10.8 -30,28.3 -22.6,44.4 5.1,11.2 19.5,17.6 33.3,17.8 13.8,0.2 27.1,-4.9 38.9,-11.2 17.3,-9.2 32.5,-21.4 44.6,-35.6 5,-5.9 9.6,-12.2 16.5,-16.5 6.9,-4.2 16.9,-5.7 23.5,-1.3 2.8,1.9 4.8,4.6 7.6,6.5 7.8,4.9 18.9,1.5 26.6,-3.5 7.7,-5 14.6,-11.6 23.9,-13.6 17,-3.5 33.4,11.7 33.7,26.9 0.4,15.2 -10.5,28.9 -22.7,39.7 -12.3,10.8 -26.6,20.2 -36.2,32.9 -9.6,12.7 -13.7,30.2 -3.8,42.8 14.6,18.7 50.6,13.6 67.2,-3.8 14.5,-15.2 18.6,-35.8 27.3,-54.1 4.1,-8.6 9.6,-17.2 18.5,-22.5 8.9,-5.3 21.8,-6.4 30.1,-0.5 10.8,7.7 9.1,22.1 8.5,34.2 -0.6,12.1 4.5,27.7 18.4,28.8 5.8,0.5 11.6,-1.9 17.2,-0.8 8.8,1.7 12.6,10.9 12.3,18.7 -0.3,7.8 -3.2,15.6 -1.6,23.2 3.4,15.9 26.7,24.2 44.2,18.6 23.6,-7.6 33.2,-30.8 33.6,-50.9 0.3,-15.1 -3,-30.1 -2.7,-45.1 0.1,-6.3 0.9,-12.9 4.8,-18.3 8.4,-11.5 23.5,-6.9 36,-5 8.8,1.3 20,-0.4 22.8,-7.7 -0.3,-8.3 -10.7,-13.2 -15.5,-20.4 -4.4,-6.6 -3.5,-15.6 2.2,-21.5 8.6,-8.7 23.6,-7.8 32.4,0.3 7.2,6.5 9.8,15.8 11.4,24.7 2.5,14.6 3.7,32.8 22.3,38.8 16.2,5.2 35.9,-2.6 49.9,-9.2 21.9,-10.4 40,-10.6 64.1,-11.8 13.7,-0.7 28.5,-4.3 36.3,-14.1 8.2,-9.9 6.4,-24 -0.8,-34.5"
           id="path1176"
           inkscape:connector-curvature="0"
           style="fill:#faaf3c" /></g></g></g></svg>