<?xml version="1.0" encoding="utf-8"?>
<!-- Generator: Adobe Illustrator 21.1.0, SVG Export Plug-In . SVG Version: 6.00 Build 0)  -->
<svg version="1.1" id="Layer_1" xmlns="http://www.w3.org/2000/svg" xmlns:xlink="http://www.w3.org/1999/xlink" x="0px" y="0px"
	 viewBox="0 0 954.1 695.3" style="enable-background:new 0 0 954.1 695.3;" xml:space="preserve">
<style type="text/css">
	.st0{clip-path:url(#SVGID_2_);}
	.st1{fill:#FAAF3C;}
</style>
<g>
	<defs>
		<rect id="SVGID_1_" x="290" y="56" width="360" height="571"/>
	</defs>
	<clipPath id="SVGID_2_">
		<use xlink:href="#SVGID_1_"  style="overflow:visible;"/>
	</clipPath>
	<g class="st0">
		<path class="st1" d="M761.9,480.6c-3.2-2.6-2.2-7.8,1.7-9.1c40.1-13.2,81.8-26,124.4-19.9c8.1,1.2,16.2,3.2,23,7.7
			c12.5,8.3,17.3,25.1,10,38.3c-6,10.8-17.2,17.6-28.7,22.1c-23.2,9-50.5,10.6-74.3,3c-9.7-3.1-17.9-8.3-25.3-14.3
			C782.1,499.9,772.8,489.5,761.9,480.6 M45.3,464.5c42.4,48.8,124.6,17,176.9,7.2c5.7-1.1,12.7-1.7,16.2,2.9c2.6,3.4,2,8.2,1,12.3
			C228,530.4,135.5,573.7,168.2,626c9.3,14.9,25.7,14.8,37.9,3.1c14.3-13.7,47.1-52,65.9-19.9c18.2,31-36.9,29.7-29.1,57.8
			c1.8,6.7,6,12.4,9,18.7c16,34-19.2,67.6-3.5,100c15.2,31.4,56.4,20.7,75.8,0.9c11.9-12.1,17.9-29.4,30.7-40.3
			c7.7-6.6,19.8-9.4,27.8-3.3c8.6,6.6,9.7,21.2,19.8,25.2c10.1,4.1,20.3-5.7,25.3-15.3c5-9.7,9.1-21.3,19.1-25.4
			c10.3-4.2,22.6,2.4,28.2,12c5.6,9.6,6.1,21.3,5.6,32.4c-0.6,14.2-1.7,30.9,9.2,40.1c22.4,18.9,46.1-13.5,50.2-32.7
			c5.2-24.3,4.1-74.8,40.6-75.2c23.7-0.2,36.1,29.2,57.9,38.4c23.6,10,53.8-12.6,51.1-38c-4-36.6-69.4-74.3-24.5-110.5
			c11.3-9.1,25.7-11.8,36.9-20.8c12.2-9.7,21.2-24.9,19.4-40.4c-2.9-25-31.2-40.2-37.3-64.6c-6.4-25.7,13.7-50.1,34.3-66.7
			c38.5-30.8,84.7-52.5,117.1-89.6c15.1-17.3,26.9-43.1,14.7-62.6c-8.4-13.5-26.2-18.9-41.9-16.2c-15.6,2.7-29.3,12.1-41.1,22.7
			c-17.2,15.7-31.4,34.7-41.5,55.7c-4.2,8.7-7.8,17.9-14.6,24.9c-6.7,6.9-17.6,11-26.2,6.6c-3.6-1.9-6.5-5-10.2-6.8
			c-9.9-4.8-21.7,2-29.1,10.1c-7.5,8.1-13.6,18.2-23.7,22.7c-18.3,8.2-40.5-8.2-44.6-27.9c-4.1-19.7,4.7-39.8,15.9-56.5
			c11.2-16.7,25-31.9,32.8-50.4s8.1-42.2-6.1-56.5c-21-21.2-60.3-7-74.8,19.1c-12.7,22.9-12.2,50.5-17.5,76.1
			c-2.5,12.1-6.7,24.4-15.4,33.1c-8.7,8.8-23,12.9-33.8,7c-14.1-7.8-15.7-26.8-18-42.8c-2.3-15.9-11.8-35.1-27.8-33.6
			c-6.6,0.6-12.6,4.9-19.2,4.7c-10.3-0.4-16.9-11.5-18.4-21.8c-1.5-10.2-0.1-21-3.8-30.6c-7.7-20-36-25.9-54.3-14.9
			c-24.8,14.9-29.9,47.1-25.4,73.3c3.3,19.7,10.7,38.5,14.1,58.2c1.4,8.3,2.1,17-1,24.8c-6.7,16.8-24.8,13.9-39.4,14.1
			c-10.2,0.1-22.5,4.7-23.9,14.9c2.3,10.7,15.3,14.9,22.5,23.2c6.6,7.7,7.8,19.6,2.8,28.4c-7.5,13.2-24.7,15.2-36.6,6.5
			c-9.7-7-14.9-18.5-18.8-29.8c-6.4-18.5-12.1-41.9-34.6-45.8c-19.5-3.4-39.8,10.9-54,22.5c-22.1,18.1-42.5,22.2-69.3,29
			c-15.3,3.8-31.1,11.6-37.5,26C29.1,434.4,34.7,452.3,45.3,464.5"/>
	</g>
</g>
</svg>
