<svg xmlns="http://www.w3.org/2000/svg" viewBox="0 0 360 458.872">
  <defs>
    <style>
      .cls-1 {
        fill: #faaf3c;
      }
    </style>
  </defs>
  <path id="Path_2576" data-name="Path 2576" class="cls-1" d="M694.1,540.1V256.7c-1.2,1.1-2.4,2.2-3.5,3.4-7.5,8.1-13.6,18.2-23.7,22.7-18.3,8.2-40.5-8.2-44.6-27.9s4.7-39.8,15.9-56.5,25-31.9,32.8-50.4,8.1-42.2-6.1-56.5c-21-21.2-60.3-7-74.8,19.1-12.7,22.9-12.2,50.5-17.5,76.1-2.5,12.1-6.7,24.4-15.4,33.1-8.7,8.8-23,12.9-33.8,7-14.1-7.8-15.7-26.8-18-42.8-2.3-15.9-11.8-35.1-27.8-33.6-6.6.6-12.6,4.9-19.2,4.7-10.3-.4-16.9-11.5-18.4-21.8-1.5-10.2-.1-21-3.8-30.6-7.7-20-36-25.9-54.3-14.9-24.8,14.9-29.9,47.1-25.4,73.3,3.3,19.7,10.7,38.5,14.1,58.2,1.4,8.3,2.1,17-1,24.8-6.1,15.3-21.7,14.3-35.5,14.1v49a25.051,25.051,0,0,1,0,10.9v222Z" transform="translate(-334.1 -81.228)"/>
</svg>
