<?xml version="1.0" encoding="UTF-8" standalone="no"?>
<!-- Generator: Adobe Illustrator 21.1.0, SVG Export Plug-In . SVG Version: 6.00 Build 0)  -->

<svg
   xmlns:dc="http://purl.org/dc/elements/1.1/"
   xmlns:cc="http://creativecommons.org/ns#"
   xmlns:rdf="http://www.w3.org/1999/02/22-rdf-syntax-ns#"
   xmlns:svg="http://www.w3.org/2000/svg"
   xmlns="http://www.w3.org/2000/svg"
   xmlns:xlink="http://www.w3.org/1999/xlink"
   xmlns:sodipodi="http://sodipodi.sourceforge.net/DTD/sodipodi-0.dtd"
   xmlns:inkscape="http://www.inkscape.org/namespaces/inkscape"
   version="1.1"
   id="Layer_1"
   x="0px"
   y="0px"
   viewBox="0 0 360.00001 255.64101"
   xml:space="preserve"
   sodipodi:docname="mobile-header-cinza.svg"
   width="360"
   height="255.64101"
   inkscape:version="0.92.1 unknown"><metadata
     id="metadata21"><rdf:RDF><cc:Work
         rdf:about=""><dc:format>image/svg+xml</dc:format><dc:type
           rdf:resource="http://purl.org/dc/dcmitype/StillImage" /></cc:Work></rdf:RDF></metadata><defs
     id="defs19" /><sodipodi:namedview
     pagecolor="#ffffff"
     bordercolor="#666666"
     borderopacity="1"
     objecttolerance="10"
     gridtolerance="10"
     guidetolerance="10"
     inkscape:pageopacity="0"
     inkscape:pageshadow="2"
     inkscape:window-width="1366"
     inkscape:window-height="703"
     id="namedview17"
     showgrid="false"
     inkscape:zoom="0.33942184"
     inkscape:cx="181.04999"
     inkscape:cy="140.99102"
     inkscape:window-x="0"
     inkscape:window-y="0"
     inkscape:window-maximized="1"
     inkscape:current-layer="Layer_1" /><style
     type="text/css"
     id="style2">
	.st0{clip-path:url(#SVGID_2_);}
	.st1{fill:#F2F2F2;}
</style><g
     id="g14"
     transform="translate(-296,-233)"><defs
       id="defs5"><rect
         id="SVGID_1_"
         x="296"
         y="233"
         width="360"
         height="272" /></defs><clipPath
       id="SVGID_2_"><use
         xlink:href="#SVGID_1_"
         style="overflow:visible"
         id="use7"
         x="0"
         y="0"
         width="100%"
         height="100%" /></clipPath><g
       class="st0"
       clip-path="url(#SVGID_2_)"
       id="g12"><path
         class="st1"
         d="m 602.4,444.7 c -11.8,13.6 -23.9,27.4 -39.7,36.1 -15.7,8.7 -36.1,11.3 -51.4,1.9 -16.2,-9.9 -24.1,-31.1 -42,-37.6 -24.5,-8.8 -52.9,15.5 -76.4,4.2 -12.4,-5.9 -18.8,-19.9 -29.9,-27.9 -13.9,-10 -32.5,-9.2 -49.5,-11.3 -17,-2.1 -36.3,-10.6 -39.1,-27.5 -2.4,-15 9.6,-28.7 10.5,-43.9 1,-17.3 -12.6,-34 -8.1,-50.8 2.4,-8.9 -8.2,-70.9 0.1,-75 8.3,-4.1 17.5,-5.8 26.7,-7.4 96.9,-17.3 211.8,20.3 308.7,3 16.9,-3 35.2,-5.8 50.4,2.2 15.5,8.2 23.7,26.4 24.8,43.9 1.1,17.5 -3.8,34.8 -8.7,51.7 -6.2,21.7 -8.7,49 -18.5,69.3 -12.3,25.3 -39.5,47.9 -57.9,69.1 z"
         id="path10"
         inkscape:connector-curvature="0"
         style="fill:#f2f2f2" /></g></g></svg>